HIERARCHY
ROOT SpineBase
{
  OFFSET 0.000000 0.000000 0.000000
  CHANNELS 6 Xposition Yposition Zposition Zrotation Xrotation Yrotation
  JOINT SpineMid
  {
    OFFSET -0.000000 29.649863 0.000000
    CHANNELS 3 Zrotation Xrotation Yrotation
    JOINT SpineShoulder
    {
      OFFSET 0.062848 22.091386 -0.822256
      CHANNELS 3 Zrotation Xrotation Yrotation
      JOINT Neck
      {
        OFFSET 0.053613 7.334500 -0.594131
        CHANNELS 3 Zrotation Xrotation Yrotation
        JOINT Head
        {
          OFFSET -3.509098 13.721179 -0.550207
          CHANNELS 3 Zrotation Xrotation Yrotation
          End Site
          {
            OFFSET 0 0 0
          }
        }
      }
      JOINT ShoulderLeft
      {
        OFFSET -15.934401 -3.658922 3.743315
        CHANNELS 3 Zrotation Xrotation Yrotation
        JOINT ElbowLeft
        {
          OFFSET -2.266672 -26.676275 1.721354
          CHANNELS 3 Zrotation Xrotation Yrotation
          JOINT WristLeft
          {
            OFFSET 1.559707 -20.533306 -8.477318
            CHANNELS 3 Zrotation Xrotation Yrotation
            JOINT HandLeft
            {
              OFFSET 0.892128 -0.843826 -0.789584
              CHANNELS 3 Zrotation Xrotation Yrotation
              JOINT HandTipLeft
              {
                OFFSET 0.440492 -6.857729 -2.116600
                CHANNELS 3 Zrotation Xrotation Yrotation
                End Site
                {
                  OFFSET 0 0 0
                }
              }
              JOINT ThumbLeft
              {
                OFFSET 4.479321 -0.127096 -1.525578
                CHANNELS 3 Zrotation Xrotation Yrotation
                End Site
                {
                  OFFSET 0 0 0
                }
              }
            }
          }
        }
      }
      JOINT ShoulderRight
      {
        OFFSET 15.087584 -2.368492 -5.922839
        CHANNELS 3 Zrotation Xrotation Yrotation
        JOINT ElbowRight
        {
          OFFSET 7.647007 -25.485790 1.965712
          CHANNELS 3 Zrotation Xrotation Yrotation
          JOINT WristRight
          {
            OFFSET -0.633549 -22.093656 -5.464833
            CHANNELS 3 Zrotation Xrotation Yrotation
            JOINT HandRight
            {
              OFFSET -3.651199 -5.589660 -2.276800
              CHANNELS 3 Zrotation Xrotation Yrotation
              JOINT HandTipRight
              {
                OFFSET -1.888460 -5.176880 1.222050
                CHANNELS 3 Zrotation Xrotation Yrotation
                End Site
                {
                  OFFSET 0 0 0
                }
              }
              JOINT ThumbRight
              {
                OFFSET 2.107523 -1.231599 0.418552
                CHANNELS 3 Zrotation Xrotation Yrotation
                End Site
                {
                  OFFSET 0 0 0
                }
              }
            }
          }
        }
      }
    }
  }
  JOINT HipLeft
  {
    OFFSET -6.641867 0.282071 -1.555518
    CHANNELS 3 Zrotation Xrotation Yrotation
    JOINT KneeLeft
    {
      OFFSET 4.265842 -27.759083 4.952096
      CHANNELS 3 Zrotation Xrotation Yrotation
      JOINT AnkleLeft
      {
        OFFSET 4.674458 -32.869516 5.014144
        CHANNELS 3 Zrotation Xrotation Yrotation
        JOINT FootLeft
        {
          OFFSET -2.591249 -3.172747 -13.081599
          CHANNELS 3 Zrotation Xrotation Yrotation
          End Site
          {
            OFFSET 0 0 0
          }
        }
      }
    }
  }
  JOINT HipRight
  {
    OFFSET 7.358550 1.700240 -5.167132
    CHANNELS 3 Zrotation Xrotation Yrotation
    JOINT KneeRight
    {
      OFFSET 7.300027 -28.124150 1.974162
      CHANNELS 3 Zrotation Xrotation Yrotation
      JOINT AnkleRight
      {
        OFFSET 2.038698 -32.760863 5.452505
        CHANNELS 3 Zrotation Xrotation Yrotation
        JOINT FootRight
        {
          OFFSET -1.836225 -6.340800 -7.364981
          CHANNELS 3 Zrotation Xrotation Yrotation
          End Site
          {
            OFFSET 0 0 0
          }
        }
      }
    }
  }
}
MOTION
Frames: 12
Frame Time: 0.033333
-34.696203 69.173076 343.770277 0.000000 0.000000 14.464932 -0.000000 0.000000 -14.464932 -0.000000 0.000000 0.000000 -0.000000 0.000000 0.000000 0.000000 0.000000 0.000000 -0.000000 0.000000 0.000000 -0.000000 0.000000 0.000000 -0.000000 0.000000 0.000000 -0.000000 0.000000 0.000000 0.000000 0.000000 0.000000 0.000000 0.000000 0.000000 -0.000000 0.000000 0.000000 -0.000000 0.000000 0.000000 -0.000000 0.000000 0.000000 -0.000000 0.000000 0.000000 0.000000 0.000000 0.000000 0.000000 0.000000 0.000000 -0.000000 0.000000 -14.464932 -0.000000 0.000000 0.000000 -0.000000 0.000000 0.000000 0.000000 0.000000 0.000000 -0.000000 0.000000 -14.464932 -0.000000 0.000000 0.000000 -0.000000 0.000000 0.000000 0.000000 0.000000 0.000000
-34.610011 69.134452 343.439464 0.079628 0.154834 13.985065 -0.114686 -0.131001 -13.985304 -0.000000 0.000000 0.000000 -0.000000 0.000000 0.000000 0.000000 0.000000 0.000000 0.462903 1.680571 -0.119881 -1.117147 -3.508103 0.211279 -6.853707 -1.557240 3.687386 6.211704 -1.643246 -3.919493 0.000000 0.000000 0.000000 0.000000 0.000000 0.000000 -0.000000 0.000000 0.000000 -0.000000 0.000000 0.000000 -1.338125 -0.169954 0.649536 2.906144 2.359312 -1.139314 0.000000 0.000000 0.000000 0.000000 0.000000 0.000000 -0.114686 -0.131001 -13.985304 -0.000000 0.000000 0.000000 0.998021 -3.230733 -1.651251 0.000000 0.000000 0.000000 -0.114686 -0.131001 -13.985304 -0.000000 0.000000 0.000000 -0.008387 -3.279630 0.992462 0.000000 0.000000 0.000000
-34.491826 69.103971 343.135583 0.174747 0.260486 13.573881 -0.231004 -0.212195 -13.574706 -0.000000 0.000000 0.000000 -0.000000 0.000000 0.000000 0.000000 0.000000 0.000000 0.888038 3.025613 -0.223823 -1.749553 -5.551608 0.283842 -8.948256 -2.590687 4.154932 7.190415 -3.705238 -4.528834 0.000000 0.000000 0.000000 0.000000 0.000000 0.000000 -1.032989 0.332849 0.023264 1.342389 0.964069 -0.132321 -3.107209 -1.565204 1.333340 5.875316 4.751626 -2.438605 0.000000 0.000000 0.000000 0.000000 0.000000 0.000000 -0.347097 -1.262328 -13.713169 -0.136171 1.047718 0.138215 1.796743 -6.071048 -3.057641 0.000000 0.000000 0.000000 -0.231004 -0.212195 -13.574706 -0.000000 0.000000 0.000000 0.116553 -6.005514 1.716424 0.000000 0.000000 0.000000
-34.341648 69.081632 342.858634 0.285357 0.317124 13.232217 -0.350372 -0.243382 -13.233751 -0.000000 0.000000 0.000000 0.408691 0.741267 0.203188 0.000000 0.000000 0.000000 1.275243 4.040586 -0.307153 -1.932628 -6.210133 0.275016 -9.918679 -4.214999 3.384383 6.805905 -4.847845 -3.846550 0.000000 0.000000 0.000000 0.000000 0.000000 0.000000 -1.130506 0.194801 -0.026910 1.411574 1.487479 -0.089941 -4.713882 -1.941384 1.899873 8.907176 7.055015 -3.856742 0.000000 0.000000 0.000000 0.000000 0.000000 0.000000 -0.629775 -1.650120 -13.449214 -0.055427 1.433137 0.211540 2.375273 -8.298382 -4.140610 0.000000 0.000000 0.000000 0.452427 -0.184010 -13.114340 -0.907400 -1.138084 -0.198334 0.492821 -7.208158 2.225182 0.000000 0.000000 0.000000
-34.159478 69.067436 342.608618 0.411464 0.324878 12.960772 -0.473850 -0.224308 -12.962866 -0.000000 0.000000 0.000000 0.499706 0.874280 0.239627 0.000000 0.000000 0.000000 1.624563 4.729803 -0.365793 -1.599837 -4.738207 0.232503 -10.640406 -7.543902 1.541062 5.873209 -4.595278 -2.179159 0.000000 0.000000 0.000000 0.000000 0.000000 0.000000 -0.952577 -0.145887 -0.118744 1.081451 2.038368 0.027091 -6.442762 -1.997708 2.422957 12.026514 9.134367 -5.332487 0.000000 0.000000 0.000000 0.000000 0.000000 0.000000 -0.991100 -1.874463 -13.260443 -0.601713 1.052757 0.097431 3.483947 -9.050815 -4.665388 0.000000 0.000000 0.000000 -0.473850 -0.224308 -12.962866 -0.243934 -1.131838 -0.113273 0.915845 -8.407241 2.381425 0.000000 0.000000 0.000000
-33.945315 69.061383 342.385534 0.553090 0.283841 12.760126 -0.602124 -0.154658 -12.762309 -0.000000 0.000000 0.000000 0.568165 0.949757 0.260729 0.000000 0.000000 0.000000 1.936227 5.095420 -0.396155 -0.952837 -3.404286 0.029801 -11.058060 -10.590601 -0.907948 4.474468 -2.440188 0.608020 0.000000 0.000000 0.000000 0.000000 0.000000 0.000000 -0.497564 -0.693364 -0.249642 0.348706 2.618424 0.226803 -8.402280 -1.673420 2.927845 15.299661 10.844259 -6.785762 0.000000 0.000000 0.000000 0.000000 0.000000 0.000000 -1.433499 -1.934399 -13.146022 -0.419211 1.066844 0.135866 3.715323 -9.385376 -4.906559 0.000000 0.000000 0.000000 -0.602124 -0.154658 -12.762309 -0.381488 -1.340585 -0.151121 1.434120 -8.938669 2.221618 0.000000 0.000000 0.000000
-33.668494 69.068649 342.171085 0.783928 0.261567 12.653412 -0.039654 0.281310 -12.633203 -0.030261 0.037193 0.024518 0.113485 0.588655 0.273069 0.000000 0.000000 0.000000 1.731852 4.335114 -0.395146 0.204744 0.030217 -0.406244 -11.693837 -20.136293 -11.334758 2.222891 6.070009 10.936026 0.000000 0.000000 0.000000 0.000000 0.000000 0.000000 -0.494785 -1.938127 -0.447957 -0.499846 3.242481 0.439218 -13.559333 -0.944819 4.349573 22.037901 12.137793 -9.162736 0.000000 0.000000 0.000000 0.000000 0.000000 0.000000 -1.922072 -2.308135 -13.152406 -0.447958 1.488570 0.209812 2.968297 -5.897225 -2.759871 0.000000 0.000000 0.000000 -0.822185 -0.083473 -12.655800 -0.555712 -1.221714 -0.174188 2.374374 -11.419280 2.193881 0.000000 0.000000 0.000000
-33.384820 69.096611 341.985964 1.005295 0.185430 12.624885 -0.082952 0.228511 -12.596915 -0.037363 -0.019629 0.033693 -0.142215 0.687772 0.228388 0.000000 0.000000 0.000000 1.888874 4.270213 -0.381242 2.034607 5.381995 -1.082192 -15.692598 -28.539635 -16.549506 -0.637393 16.815774 16.547389 0.000000 0.000000 0.000000 0.000000 0.000000 0.000000 0.569226 -2.859185 -0.662856 -2.232933 3.760213 0.864132 -17.095009 1.915869 4.672108 25.863927 11.833334 -9.377339 0.000000 0.000000 0.000000 0.000000 0.000000 0.000000 -2.605480 -2.333675 -13.248430 0.076091 1.644508 0.314970 2.418539 -4.226493 -1.853740 0.000000 0.000000 0.000000 -1.860910 -0.136549 -12.773957 0.073642 -1.097425 -0.068085 3.306779 -8.844060 0.395415 0.000000 0.000000 0.000000
-33.104990 69.140662 341.854925 1.212735 0.033562 12.611020 -0.178525 0.066202 -12.573648 -0.033866 -0.105237 0.043499 -0.990200 0.047463 -0.080148 0.000000 0.000000 0.000000 1.313337 4.265692 -0.378700 4.932894 12.297841 -2.006302 -16.158428 -23.708760 -2.090826 0.233608 15.618245 3.687576 0.000000 0.000000 0.000000 0.000000 0.000000 0.000000 2.002293 -4.087055 -0.973593 -4.513594 4.672290 1.552961 -19.331795 4.982455 4.734029 28.774480 11.421054 -8.844300 0.000000 0.000000 0.000000 0.000000 0.000000 0.000000 -3.300487 -2.034459 -13.330459 0.468380 1.715315 0.392358 3.477618 -6.456090 -4.720012 0.000000 0.000000 0.000000 -2.908047 0.546463 -12.737916 0.843040 -1.827972 -0.142535 2.218584 -2.291281 -0.054284 0.000000 0.000000 0.000000
-32.893149 69.283155 341.803322 1.350352 -0.251495 12.381362 -0.309540 -0.208158 -12.333071 -0.016483 -0.189143 0.052043 -1.075161 0.712070 -0.085657 0.000000 0.000000 0.000000 1.360778 4.231086 -0.334326 10.550228 22.715683 -5.049070 0.562553 -25.212923 -3.035928 -26.596608 20.625835 15.749472 0.000000 0.000000 0.000000 0.000000 0.000000 0.000000 3.772322 -5.914231 -1.454710 -5.045783 6.479195 1.875326 -33.224564 13.191063 7.416331 41.914024 5.271774 -3.672217 0.000000 0.000000 0.000000 0.000000 0.000000 0.000000 -3.802163 -1.141127 -13.098819 0.719193 1.219374 0.364244 5.338174 -10.940468 -10.595240 0.000000 0.000000 0.000000 -3.694707 1.770143 -12.330488 1.371977 -3.277746 -0.391779 4.512085 -2.021802 -2.233797 0.000000 0.000000 0.000000
-32.673138 69.218991 341.835338 1.114211 -0.995468 12.241314 -0.397603 -0.472447 -12.190360 0.028897 -0.228167 0.048281 -0.852288 1.770830 -0.068897 0.000000 0.000000 0.000000 1.688352 4.344676 -0.260534 11.637529 28.708346 -6.085183 -2.089186 -34.249842 -5.635837 -41.995177 49.793733 33.698542 0.000000 0.000000 0.000000 0.000000 0.000000 0.000000 6.135665 -6.588443 -1.703432 -8.848001 6.936178 3.072604 -32.506529 11.150656 8.976023 42.667255 8.322208 -7.639245 0.000000 0.000000 0.000000 0.000000 0.000000 0.000000 -4.343544 1.995270 -12.756537 2.483275 -1.927332 0.174722 5.384773 -12.332487 -11.197364 0.000000 0.000000 0.000000 -3.634553 4.021604 -11.761021 1.637428 -5.582934 -0.862459 5.288340 0.875705 -3.373598 0.000000 0.000000 0.000000
-32.338196 68.866149 341.852664 0.747313 -1.965807 12.392619 -0.515322 -0.705434 -12.349172 0.020354 -0.287507 0.033845 -0.412585 3.053259 -0.044845 0.000000 0.000000 0.000000 2.267438 4.604579 -0.183739 10.030240 29.604781 -5.471564 -7.395227 -34.024009 -4.597242 -50.348271 63.767629 45.585036 0.000000 0.000000 0.000000 0.000000 0.000000 0.000000 5.982690 -4.803813 -1.772828 -11.836809 6.107368 4.208607 -28.782592 11.691652 8.257905 40.944001 9.004910 -8.491793 0.000000 0.000000 0.000000 0.000000 0.000000 0.000000 -5.810525 7.938694 -12.374744 6.787498 -8.928424 0.147500 4.279899 -12.262797 -9.096283 0.000000 0.000000 0.000000 -3.147172 6.827375 -11.361422 1.801325 -8.303037 -1.437213 4.892813 5.186671 -3.574297 0.000000 0.000000 0.000000
